<svg width="129" height="129" viewBox="0 0 129 129" fill="none" xmlns="http://www.w3.org/2000/svg">
<path d="M60.9493 128.95C59.727 121.728 56.5048 113.95 51.2826 105.617C46.0604 97.1724 38.6159 89.3391 28.9493 82.1169C19.3937 74.8946 9.83815 70.2835 0.282593 68.2835V61.2835C9.72704 59.0613 18.7826 54.9502 27.4493 48.9502C36.227 42.8391 43.5604 35.5057 49.4493 26.9502C55.4493 18.1724 59.2826 9.50575 60.9493 0.950195H67.9493C68.9493 6.50575 70.9493 12.228 73.9493 18.1169C76.9493 23.8946 80.7826 29.4502 85.4493 34.7835C90.227 40.0057 95.5604 44.728 101.449 48.9502C110.227 55.1724 119.171 59.2835 128.283 61.2835V68.2835C122.171 69.5057 115.838 72.0057 109.283 75.7835C102.838 79.5613 96.8381 84.0613 91.2826 89.2835C85.727 94.3946 81.1715 99.7835 77.6159 105.45C72.3937 113.784 69.1715 121.617 67.9493 128.95H60.9493Z" fill="#8E56FF"/>
</svg>
